<?xml version="1.0" encoding="UTF-8" standalone="no"?>
<!-- Created with Inkscape (http://www.inkscape.org/) -->

<svg
   xmlns:dc="http://purl.org/dc/elements/1.1/"
   xmlns:cc="http://creativecommons.org/ns#"
   xmlns:rdf="http://www.w3.org/1999/02/22-rdf-syntax-ns#"
   xmlns:svg="http://www.w3.org/2000/svg"
   xmlns="http://www.w3.org/2000/svg"
   xmlns:sodipodi="http://sodipodi.sourceforge.net/DTD/sodipodi-0.dtd"
   xmlns:inkscape="http://www.inkscape.org/namespaces/inkscape"
   width="127.99987"
   height="127.92398"
   id="svg2"
   version="1.1"
   inkscape:version="0.48.5 r10040"
   sodipodi:docname="logo.svg">
  <defs
     id="defs4" />
  <sodipodi:namedview
     id="base"
     pagecolor="#ffffff"
     bordercolor="#666666"
     borderopacity="1.0"
     inkscape:pageopacity="0.0"
     inkscape:pageshadow="2"
     inkscape:zoom="2"
     inkscape:cx="-25.712232"
     inkscape:cy="67.676291"
     inkscape:document-units="px"
     inkscape:current-layer="layer4"
     showgrid="false"
     inkscape:showpageshadow="false"
     showborder="true"
     inkscape:window-width="1440"
     inkscape:window-height="837"
     inkscape:window-x="-8"
     inkscape:window-y="-8"
     inkscape:window-maximized="1"
     fit-margin-top="0"
     fit-margin-left="0"
     fit-margin-right="0"
     fit-margin-bottom="0" />
  <metadata
     id="metadata7">
    <rdf:RDF>
      <cc:Work
         rdf:about="">
        <dc:format>image/svg+xml</dc:format>
        <dc:type
           rdf:resource="http://purl.org/dc/dcmitype/StillImage" />
        <dc:title />
      </cc:Work>
    </rdf:RDF>
  </metadata>
  <g
     inkscape:label="Base"
     inkscape:groupmode="layer"
     id="layer1"
     transform="translate(0.781208,-924.05644)"
     style="display:inline">
    <path
       id="path3"
       d="m 70.498752,924.0567 c -1.377279,1.00224 -2.945598,3.44703 -3.559998,5.75999 -2.085119,7.776 -18.58079,8.88864 -22.119988,2.76 -1.181439,-2.048 -3.375998,-3.9328 -4.879997,-4.56 -4.134398,1.25312 -13.126073,6.43328 -16.759991,9.44 0.25088,2.12992 0.29888,4.608 1.519999,6.71999 3.536638,6.12992 -6.036476,19.78623 -13.599992,17.76 -2.488319,-0.6656 -5.070077,-0.4768 -7.199996,0.39999 -1.754879,3.88608 -4.429117,14.1056 -4.679997,18.23999 0.501759,1.12768 3.487678,3.12007 5.8799964,3.76007 10.2950336,2.75967 10.3785536,17.85407 2.9199986,22.15997 -2.106879,1.2173 -3.928638,2.9088 -4.679998,5.04 1.2531197,4.009 6.302397,12.8406 9.559995,16.5999 2.129918,0.2496 4.606717,-0.2976 6.719996,-1.52 6.661116,-3.8489 19.971509,5.1943 17.71999,13.6 -0.584959,2.1876 -0.25504,4.5035 0.119936,6.7601 5.012477,2.1299 14.107512,5.1254 19.11999,4.9999 1.628159,-1.504 2.627838,-3.6211 3.199998,-5.76 1.971199,-7.3574 18.23487,-9.7011 22.079988,-3.04 1.073919,1.8624 2.566398,3.6378 4.319997,4.64 5.262077,-1.504 14.503991,-6.7023 17.639991,-9.9599 0.12288,-2.3795 -0.7664,-4.3473 -1.88,-6.2801 -4.15616,-7.1923 5.57664,-19.78 13.55999,-17.6399 2.18624,0.5837 4.55424,0.3804 6.56,-0.1203 1.7536,-4.3866 4.6608,-12.2447 5.16,-18.7599 -1.7536,-2.0045 -3.41088,-2.9406 -5.72,-3.5601 -7.14496,-1.9149 -8.78111,-18.65695 -2.92,-22.03998 1.92128,-1.1136 3.41568,-2.69856 4.4,-4.52 -1.52448,-5.55904 -6.70496,-13.55776 -9.64,-17.11999 -2.14527,-0.0998 -4.36319,0.36672 -6.35999,1.52 -6.3936,3.69407 -19.608631,-6.1664 -17.639992,-13.52 0.615679,-2.2976 0.301759,-5.09183 -0.2,-6.71999 -3.633918,-1.87904 -12.248954,-4.41408 -18.63999,-5.04 z"
       inkscape:connector-curvature="0"
       style="fill:#504949;fill-opacity:1" />
  </g>
  <g
     inkscape:groupmode="layer"
     id="layer2"
     inkscape:label="Controller"
     transform="translate(0.781208,28.30574)"
     style="display:inline">
    <path
       style="fill:#ff00f6;fill-opacity:1"
       inkscape:connector-curvature="0"
       d="m 77.521707,71.404962 c -0.132035,-0.681491 -1.902354,-9.891758 -1.902354,-14.535582 0,-4.20214 -2.527255,-5.61886 -3.86404,-5.780772 l -15.094116,-0.0031 c 0.806085,-1.916422 3.20967,-6.360205 7.874295,-5.388533 6.546686,1.366554 7.300981,0.348801 9.441202,-4.184196 l 0.375005,-0.791815 c 0.186384,-0.389791 0.02152,-0.856455 -0.368376,-1.042837 -0.38969,-0.186892 -0.856458,-0.02131 -1.042737,0.368376 l -0.378164,0.798444 c -1.919481,4.06378 -2.12238,4.487219 -7.706678,3.320907 -5.5221,-1.154585 -8.7905,3.8253 -9.878198,6.919247 l -12.71949,-0.0024 -0.09401,0.0058 c -1.336376,0.16191 -3.864045,1.578631 -3.864045,5.780769 0,4.642402 -1.771028,13.854092 -1.90327,14.535585 -0.09656,0.327188 -0.466156,1.83506 0.437406,3.216708 0.821685,1.255724 2.397871,1.989218 4.723966,2.182125 3.225271,0.105528 5.850103,-1.410296 7.808329,-4.501492 0.345841,-0.545986 0.647541,-1.054665 0.924055,-1.520821 1.24808,-2.104331 1.745332,-2.831705 3.035013,-2.831705 0.38612,0 0.713613,-0.01174 0.94995,-0.02886 l 5.315534,-0.0016 c 0.287729,0.01856 0.616445,0.03028 1.002463,0.03028 1.290187,0 1.787543,0.728092 3.036336,2.833543 0.276007,0.465547 0.577499,0.973609 0.923037,1.518988 1.894806,2.990458 4.416252,4.506691 7.495416,4.506691 0.103794,0 0.208302,-0.002 0.35186,-0.0075 2.287349,-0.19056 3.86333,-0.924055 4.684507,-2.179781 0.903869,-1.381546 0.534267,-2.889211 0.437099,-3.216606 z m -1.755226,2.373912 c -0.540075,0.812309 -1.749003,1.318538 -3.457634,1.461688 -0.08738,0.003 -0.174246,0.0046 -0.260913,0.0046 -2.543162,0 -4.563073,-1.236456 -6.174331,-3.779618 -0.336566,-0.531308 -0.629903,-1.026321 -0.898872,-1.480039 -1.239617,-2.089953 -2.134818,-3.599969 -4.381588,-3.599969 -0.346963,0 -0.642646,-0.01041 -0.951785,-0.02865 l -5.416882,0.0016 c -0.257749,0.01693 -0.552208,0.02733 -0.899278,0.02733 -2.24595,0 -3.141052,1.509401 -4.379956,3.598136 -0.269377,0.454223 -0.563222,0.949847 -0.900501,1.481766 -1.610952,2.543166 -3.630353,3.779624 -6.173212,3.779624 -0.08646,0 -0.173839,-0.0018 -0.222372,-0.0023 -1.747477,-0.145598 -2.957116,-0.651824 -3.4975,-1.464029 -0.585857,-0.88021 -0.256937,-1.926515 -0.255305,-1.931405 l 0.02722,-0.101552 c 0.07912,-0.402841 1.94028,-9.926018 1.94028,-14.876536 0,-3.623014 2.151029,-4.164314 2.455275,-4.222636 h 29.281712 c 0.298742,0.05618 2.454564,0.59106 2.454564,4.222636 0,4.950518 1.860343,14.473695 1.939769,14.876536 l 0.02569,0.09615 c 0.0028,0.0102 0.331471,1.056496 -0.254388,1.93671 z"
       id="path3263" />
    <path
       style="fill:#00fcff;fill-opacity:1"
       inkscape:connector-curvature="0"
       d="m 68.399538,57.399566 c 0,1.074037 -0.87063,1.944563 -1.944567,1.944563 -1.074545,0 -1.94456,-0.870526 -1.94456,-1.944563 0,-1.073323 0.870015,-1.944562 1.94456,-1.944562 1.073937,1.02e-4 1.944567,0.871239 1.944567,1.944562 z"
       id="path3265" />
    <path
       style="fill:#00fcff;fill-opacity:1"
       inkscape:connector-curvature="0"
       d="m 68.399538,63.880794 c 0,1.074547 -0.87063,1.944565 -1.944567,1.944565 -1.074545,0 -1.94456,-0.870018 -1.94456,-1.944565 0,-1.073831 0.870015,-1.943846 1.94456,-1.943846 1.073937,-1.02e-4 1.944567,0.870015 1.944567,1.943846 z"
       id="path3267" />
    <path
       style="fill:#00fcff;fill-opacity:1"
       inkscape:connector-curvature="0"
       d="m 70.863273,62.584488 c -1.073935,0 -1.944361,-0.869915 -1.944361,-1.944562 0,-1.073321 0.870426,-1.943849 1.944361,-1.943849 1.073935,0 1.944562,0.870528 1.944562,1.943849 0,1.074647 -0.870627,1.944562 -1.944562,1.944562 z"
       id="path3269" />
    <path
       style="fill:#00fcff;fill-opacity:1"
       inkscape:connector-curvature="0"
       d="m 62.04596,62.584488 c -1.073427,0 -1.944565,-0.869915 -1.944565,-1.944562 0,-1.073321 0.871138,-1.943849 1.944565,-1.943849 1.074542,0 1.94456,0.870528 1.94456,1.943849 1.01e-4,1.074647 -0.869914,1.944562 -1.94456,1.944562 z"
       id="path3271" />
    <path
       style="fill:#00fcff;fill-opacity:1"
       inkscape:connector-curvature="0"
       d="m 44.097397,57.164451 c -0.195456,0.317702 -0.05129,0.577288 0.322597,0.577288 h 2.364227 c 0.373885,0 0.501537,-0.248574 0.284059,-0.552821 l -1.103297,-1.321389 c -0.216869,-0.303021 -0.555271,-0.292012 -0.75083,0.02559 l -1.116756,1.27133 z"
       id="path3273" />
    <path
       style="fill:#00fcff;fill-opacity:1"
       inkscape:connector-curvature="0"
       d="m 47.085918,63.090919 c 0.196679,-0.31699 0.05067,-0.576069 -0.321986,-0.576069 h -2.364226 c -0.373883,0 -0.500925,0.248678 -0.285283,0.5517 l 1.104523,1.321288 c 0.215645,0.303739 0.554146,0.292113 0.750828,-0.02427 l 1.116144,-1.272653 z"
       id="path3275" />
    <path
       style="fill:#00fcff;fill-opacity:1"
       inkscape:connector-curvature="0"
       d="m 48.55525,58.633679 c -0.317705,-0.196681 -0.576068,-0.0519 -0.576068,0.321272 v 2.365448 c 0,0.373273 0.248066,0.500316 0.5517,0.284062 l 1.32139,-1.104524 c 0.303022,-0.216256 0.291905,-0.554658 -0.02447,-0.750725 l -1.27255,-1.115533 z"
       id="path3277" />
    <path
       style="fill:#00fcff;fill-opacity:1"
       inkscape:connector-curvature="0"
       d="m 42.62878,61.622198 c 0.317705,0.196783 0.576679,0.052 0.576679,-0.321272 v -2.364838 c 0,-0.373271 -0.248678,-0.500924 -0.552313,-0.284667 l -1.321387,1.104519 c -0.303023,0.216256 -0.292012,0.55466 0.02447,0.750827 l 1.272551,1.115431 z"
       id="path3279" />
    <path
       style="fill:#faff00;fill-opacity:1;stroke:#ff00e3;stroke-width:0.25;stroke-opacity:0.41884813"
       d="m 40.137905,102.81384 c -1.123495,-0.34557 -2.171478,-1.27966 -2.171478,-1.93549 0,-0.25561 0.337803,-2.521922 0.750673,-5.036265 0.412871,-2.514343 0.907874,-6.447635 1.100008,-8.74065 0.386453,-4.612118 0.659287,-5.416377 2.063481,-6.08271 0.706887,-0.33544 2.690185,-0.376121 15.432198,-0.31654 l 14.621067,0.06837 0.770273,0.738092 c 0.948057,0.908448 1.169942,1.753295 1.38196,5.261908 0.183872,3.042883 0.642392,6.586299 1.388625,10.731223 0.619622,3.441672 0.619222,3.453872 -0.142078,4.358632 -1.37349,1.6323 -4.892057,1.59687 -7.100752,-0.0715 -0.687583,-0.51938 -1.82849,-1.915115 -3,-3.670068 -2.61236,-3.91339 -2.47251,-3.848277 -8.265455,-3.848277 -5.792946,0 -5.653095,-0.06511 -8.265455,3.848277 -2.113179,3.165598 -3.444319,4.360488 -5.309351,4.765908 -1.467222,0.31894 -2.02585,0.30677 -3.253716,-0.0709 z m 27.714884,-9.531924 c 1.280128,-1.280126 0.439633,-3.386363 -1.351327,-3.386363 -1.223058,0 -2.035035,0.808146 -2.035035,2.025433 0,1.771872 2.122442,2.624851 3.386362,1.36093 l 0,0 z M 46.515247,91.97378 c 0.385649,-0.369475 0.70118,-0.875725 0.70118,-1.125 0,-0.391152 -0.222567,-0.453227 -1.625,-0.453227 -1.863479,0 -2.021909,0.239938 -0.977777,1.480818 0.791611,0.940777 1.009652,0.951946 1.901597,0.09741 l 0,0 z m 16.870347,-1.890727 c 0.70976,-0.788505 0.856623,-1.337115 0.56399,-2.106798 -0.338332,-0.889886 -0.94404,-1.313138 -1.892961,-1.322752 -1.221651,-0.01238 -1.953833,0.734127 -1.953833,1.99205 0,0.802522 0.139199,1.166094 0.584514,1.526689 0.807702,0.654037 2.066748,0.61242 2.69829,-0.08919 z m 8.56298,0.322054 c 0.76134,-0.407457 1.13211,-1.630156 0.763895,-2.519109 -0.365117,-0.88147 -0.928495,-1.243661 -1.917107,-1.232495 -0.872883,0.0099 -1.48225,0.455198 -1.812918,1.324923 -0.29399,0.773249 0.0119,1.817725 0.68131,2.326302 0.508358,0.386224 1.656468,0.436664 2.28482,0.100379 z M 43.216427,88.145553 c 0,-1.016885 -0.106269,-1.75 -0.253672,-1.75 -0.139519,0 -0.673894,0.39375 -1.1875,0.875 l -0.933828,0.875 0.933828,0.875 c 0.513606,0.48125 1.047981,0.875 1.1875,0.875 0.147403,0 0.253672,-0.733116 0.253672,-1.75 z m 6.191171,0.8917 0.933829,-0.858299 -0.861542,-0.891701 c -1.282631,-1.32753 -1.513458,-1.196625 -1.513458,0.8583 0,1.016884 0.106268,1.75 0.253671,1.75 0.139519,0 0.673894,-0.386235 1.1875,-0.8583 z m 18.480216,-2.185279 c 1.266988,-1.190273 0.312115,-3.456421 -1.45641,-3.456421 -1.749025,0 -2.634127,2.130495 -1.4214,3.421387 0.717063,0.763276 2.084908,0.779928 2.87781,0.03503 z M 47.131747,85.505628 c 0.158644,-0.413418 -1.039327,-1.860075 -1.54032,-1.860075 -0.1548,0 -0.598366,0.330784 -0.985702,0.735075 -1.026161,1.071082 -0.73737,1.514925 0.985702,1.514925 1.029205,0 1.429585,-0.101355 1.54032,-0.389925 z"
       id="path3786"
       inkscape:connector-curvature="0"
       transform="translate(0,-28)" />
  </g>
  <g
     inkscape:groupmode="layer"
     id="layer4"
     inkscape:label="Screen"
     transform="translate(0.781208,28.30574)"
     style="display:inline">
    <g
       id="g4082"
       transform="matrix(0.63379149,0,0,0.63379149,37.428699,-9.952148)"
       style="fill:#ffee00;fill-opacity:1">
      <g
         id="g4066"
         style="fill:#ffee00;fill-opacity:1">
        <path
           id="path4068"
           d="m 84.712,66.527 c -0.827,0 -1.5,0.615 -1.5,1.371 0,0.756 0.673,1.371 1.5,1.371 0.825,0 1.498,-0.615 1.498,-1.371 0,-0.756 -0.673,-1.371 -1.498,-1.371 z"
           inkscape:connector-curvature="0"
           style="fill:#ffee00;fill-opacity:1" />
        <path
           id="path4070"
           d="M 92.149,18.493 H 7.852 c -0.77,0 -1.394,0.574 -1.394,1.282 v 51.5 c 0,0.707 0.624,1.282 1.394,1.282 H 92.15 c 0.769,0 1.393,-0.575 1.393,-1.282 v -51.5 C 93.542,19.067 92.918,18.493 92.149,18.493 z M 13.443,69.492 c -0.95,0 -1.723,-0.715 -1.723,-1.594 0,-0.879 0.772,-1.594 1.723,-1.594 0.949,0 1.721,0.715 1.721,1.594 0,0.879 -0.771,1.594 -1.721,1.594 z m 71.269,0 c -0.95,0 -1.722,-0.715 -1.722,-1.594 0,-0.879 0.771,-1.594 1.722,-1.594 0.948,0 1.721,0.715 1.721,1.594 0,0.879 -0.773,1.594 -1.721,1.594 z m 4.775,-6.765 H 10.191 V 20.951 h 79.296 v 41.776 z"
           inkscape:connector-curvature="0"
           style="fill:#ffee00;fill-opacity:1" />
        <path
           id="path4072"
           d="m 13.443,66.527 c -0.827,0 -1.501,0.615 -1.501,1.371 0,0.756 0.674,1.371 1.501,1.371 0.826,0 1.499,-0.615 1.499,-1.371 0,-0.756 -0.672,-1.371 -1.499,-1.371 z"
           inkscape:connector-curvature="0"
           style="fill:#ffee00;fill-opacity:1" />
      </g>
      <path
         id="path4074"
         d="m 73.373,73.414 c 0,4.47 -10.253,8.093 -22.901,8.093 -12.647,0 -22.899,-3.623 -22.899,-8.093"
         inkscape:connector-curvature="0"
         style="fill:#ffee00;fill-opacity:1" />
    </g>
    <rect
       style="fill:#000000;fill-opacity:1"
       id="rect4124"
       width="50.629044"
       height="26.861866"
       x="43.865967"
       y="3.0455246" />
  </g>
  <g
     inkscape:groupmode="layer"
     id="layer3"
     inkscape:label="Letter"
     transform="translate(0.781208,0.30574)">
    <text
       xml:space="preserve"
       style="font-size:37.03347015px;font-style:normal;font-variant:normal;font-weight:normal;font-stretch:normal;line-height:125%;letter-spacing:0px;word-spacing:0px;fill:#00fcff;fill-opacity:1;stroke:#ffffff;stroke-width:0.92583674;stroke-opacity:0.41884813;font-family:Consolas;-inkscape-font-specification:Consolas"
       x="56.260025"
       y="56.986599"
       id="text3771"
       sodipodi:linespacing="125%"
       transform="scale(1.0161492,0.98410746)"><tspan
         sodipodi:role="line"
         id="tspan3773"
         x="56.260025"
         y="56.986599"
         style="font-style:oblique;fill:#00fcff;fill-opacity:1;stroke:#ffffff;stroke-width:0.92583674;stroke-opacity:0.41884813;-inkscape-font-specification:Consolas Oblique">N</tspan></text>
  </g>
</svg>
