<?xml version="1.0" encoding="UTF-8" standalone="no"?>
<!-- Created with Inkscape (http://www.inkscape.org/) -->

<svg
   xmlns:dc="http://purl.org/dc/elements/1.1/"
   xmlns:cc="http://creativecommons.org/ns#"
   xmlns:rdf="http://www.w3.org/1999/02/22-rdf-syntax-ns#"
   xmlns:svg="http://www.w3.org/2000/svg"
   xmlns="http://www.w3.org/2000/svg"
   xmlns:sodipodi="http://sodipodi.sourceforge.net/DTD/sodipodi-0.dtd"
   xmlns:inkscape="http://www.inkscape.org/namespaces/inkscape"
   width="127.99987"
   height="127.92398"
   id="svg2"
   version="1.1"
   inkscape:version="0.48.5 r10040"
   sodipodi:docname="logo.svg"
   inkscape:export-filename="C:\NuclecticFramework\gfx\logo\logo.png"
   inkscape:export-xdpi="90"
   inkscape:export-ydpi="90">
  <defs
     id="defs4" />
  <sodipodi:namedview
     id="base"
     pagecolor="#ffffff"
     bordercolor="#666666"
     borderopacity="1.0"
     inkscape:pageopacity="0.0"
     inkscape:pageshadow="2"
     inkscape:zoom="1"
     inkscape:cx="-289.59778"
     inkscape:cy="125.63424"
     inkscape:document-units="px"
     inkscape:current-layer="layer3"
     showgrid="false"
     inkscape:showpageshadow="false"
     showborder="true"
     inkscape:window-width="1440"
     inkscape:window-height="837"
     inkscape:window-x="-8"
     inkscape:window-y="-8"
     inkscape:window-maximized="1"
     fit-margin-top="0"
     fit-margin-left="0"
     fit-margin-right="0"
     fit-margin-bottom="0" />
  <metadata
     id="metadata7">
    <rdf:RDF>
      <cc:Work
         rdf:about="">
        <dc:format>image/svg+xml</dc:format>
        <dc:type
           rdf:resource="http://purl.org/dc/dcmitype/StillImage" />
        <dc:title></dc:title>
      </cc:Work>
    </rdf:RDF>
  </metadata>
  <g
     inkscape:groupmode="layer"
     id="layer2"
     inkscape:label="Controller"
     transform="translate(0.781208,28.30574)"
     style="display:inline">
    <path
       style="fill:#504949;fill-opacity:1"
       inkscape:connector-curvature="0"
       d="m 59.941935,90.859263 c -0.19413,-1.066345 -2.797013,-15.477859 -2.797013,-22.744155 0,-6.575184 -3.715799,-8.791958 -5.681261,-9.045306 l -22.192735,-0.0049 c 1.185179,-2.998669 4.719147,-9.951958 11.577501,-8.43156 9.62553,2.138278 10.734562,0.545777 13.881309,-6.547107 l 0.551366,-1.238971 c 0.274039,-0.609914 0.03164,-1.340114 -0.541619,-1.63175 -0.572958,-0.292435 -1.259243,-0.03334 -1.533127,0.576406 l -0.556011,1.249343 C 49.828151,49.400002 49.52983,50.062567 41.31929,48.237612 33.200199,46.431007 28.394702,54.223146 26.79547,59.064315 l -18.701346,-0.0038 -0.138222,0.0091 c -1.9648605,0.253344 -5.6812682,2.47012 -5.6812682,9.0453 0,7.264072 -2.6039256,21.677813 -2.7983597,22.74416 -0.1419713,0.511959 -0.6853848,2.87136 0.6431139,5.033256 1.2081156,1.96486 3.5255669,3.112575 6.945602,3.414421 4.742085,0.165122 8.601351,-2.206722 11.480512,-7.043587 0.508487,-0.854317 0.952073,-1.650258 1.358629,-2.379663 1.83504,-3.292695 2.566145,-4.430833 4.462351,-4.430833 0.567709,0 1.049218,-0.01837 1.396702,-0.04516 l 7.815379,-0.0025 c 0.423046,0.02904 0.906354,0.04738 1.473912,0.04738 1.89695,0 2.628208,1.139262 4.464296,4.433709 0.405811,0.728452 0.849091,1.523428 1.357133,2.376795 2.785915,4.679238 6.493173,7.051722 11.020439,7.051722 0.152607,0 0.306264,-0.0031 0.517336,-0.01174 3.363067,-0.298174 5.680217,-1.44589 6.887586,-3.410753 1.32895,-2.161737 0.785528,-4.520814 0.642662,-5.033097 z m -2.580692,3.714514 c -0.794067,1.271038 -2.571543,2.063146 -5.083727,2.287136 -0.128474,0.0047 -0.256192,0.0072 -0.383618,0.0072 -3.739186,0 -6.709042,-1.934711 -9.07806,-5.914054 -0.494849,-0.83135 -0.92614,-1.605908 -1.321603,-2.315851 -1.822597,-3.270197 -3.138802,-5.632953 -6.442207,-5.632953 -0.510136,0 -0.944876,-0.01629 -1.3994,-0.04483 l -7.96439,0.0025 c -0.378966,0.02649 -0.811906,0.04276 -1.3222,0.04276 -3.302199,0 -4.618259,2.361794 -6.439808,5.630085 -0.396062,0.710733 -0.8281,1.486247 -1.323998,2.318553 -2.368567,3.97935 -5.337673,5.914064 -9.076415,5.914064 -0.127121,0 -0.255593,-0.0028 -0.326951,-0.0036 C 4.6295672,96.636973 2.8510465,95.84487 2.0565251,94.573994 1.1951451,93.19671 1.678753,91.559532 1.6811526,91.551881 l 0.040021,-0.158901 c 0.1163293,-0.630334 2.8527752,-15.531465 2.8527752,-23.277653 0,-5.669013 3.1626382,-6.515997 3.6099682,-6.607255 h 43.052622 c 0.439237,0.08791 3.608922,0.924845 3.608922,6.607255 0,7.746188 2.735245,22.647319 2.852024,23.277653 l 0.03777,0.150448 c 0.0041,0.01596 0.487358,1.653124 -0.374025,3.030414 z"
       id="path3263" />
    <path
       style="fill:#00fcff;fill-opacity:1"
       inkscape:connector-curvature="0"
       d="m 46.529697,68.944702 c 0,1.68057 -1.280079,3.042701 -2.859079,3.042701 -1.579893,0 -2.859068,-1.362131 -2.859068,-3.042701 0,-1.679453 1.279175,-3.042701 2.859068,-3.042701 1.579,1.6e-4 2.859079,1.363248 2.859079,3.042701 z"
       id="path3265" />
    <path
       style="fill:#00fcff;fill-opacity:1"
       inkscape:connector-curvature="0"
       d="m 46.529697,79.086026 c 0,1.681368 -1.280079,3.042705 -2.859079,3.042705 -1.579893,0 -2.859068,-1.361337 -2.859068,-3.042705 0,-1.680248 1.279175,-3.04158 2.859068,-3.04158 1.579,-1.59e-4 2.859079,1.361332 2.859079,3.04158 z"
       id="path3267" />
    <path
       style="fill:#00fcff;fill-opacity:1"
       inkscape:connector-curvature="0"
       d="m 50.152103,77.057667 c -1.578997,0 -2.858776,-1.361176 -2.858776,-3.042701 0,-1.679449 1.279779,-3.041584 2.858776,-3.041584 1.578996,0 2.859071,1.362135 2.859071,3.041584 0,1.681525 -1.280075,3.042701 -2.859071,3.042701 z"
       id="path3269" />
    <path
       style="fill:#00fcff;fill-opacity:1"
       inkscape:connector-curvature="0"
       d="m 37.188091,77.057667 c -1.578249,0 -2.859075,-1.361176 -2.859075,-3.042701 0,-1.679449 1.280826,-3.041584 2.859075,-3.041584 1.579889,0 2.859068,1.362135 2.859068,3.041584 1.49e-4,1.681525 -1.279026,3.042701 -2.859068,3.042701 z"
       id="path3271" />
    <path
       style="fill:#00fcff;fill-opacity:1"
       inkscape:connector-curvature="0"
       d="m 10.79849,68.576812 c -0.287377,0.497115 -0.07541,0.903295 0.474311,0.903295 h 3.476101 c 0.549719,0 0.737405,-0.388949 0.417649,-0.865011 l -1.622167,-2.067607 c -0.318861,-0.474144 -0.81641,-0.456918 -1.103938,0.04004 l -1.641956,1.989279 z"
       id="path3273" />
    <path
       style="fill:#00fcff;fill-opacity:1"
       inkscape:connector-curvature="0"
       d="m 15.192484,77.850091 c 0.289175,-0.496002 0.0745,-0.901388 -0.473413,-0.901388 h -3.476099 c -0.549717,0 -0.736505,0.389112 -0.419449,0.863257 l 1.62397,2.067449 c 0.317061,0.475268 0.814755,0.457076 1.103935,-0.03797 l 1.641056,-1.991349 z"
       id="path3275" />
    <path
       style="fill:#00fcff;fill-opacity:1"
       inkscape:connector-curvature="0"
       d="m 17.352829,70.875746 c -0.467119,-0.307751 -0.846987,-0.08121 -0.846987,0.502702 v 3.70127 c 0,0.584069 0.364729,0.782856 0.811159,0.444478 l 1.942827,-1.728274 c 0.44553,-0.33838 0.429185,-0.867885 -0.03598,-1.174676 l -1.871018,-1.7455 z"
       id="path3277" />
    <path
       style="fill:#00fcff;fill-opacity:1"
       inkscape:connector-curvature="0"
       d="m 8.639196,75.55195 c 0.467119,0.307911 0.847886,0.08136 0.847886,-0.502702 v -3.700316 c 0,-0.584065 -0.365629,-0.783807 -0.812061,-0.445424 l -1.942822,1.728265 c -0.445532,0.338381 -0.429343,0.86789 0.03598,1.174837 l 1.871019,1.74534 z"
       id="path3279" />
    <path
       style="fill:#504949;fill-opacity:1;stroke:#504949;stroke-width:0.37919298000000001;stroke-opacity:1"
       d="M 4.9768866,96.193212 C 3.3250226,95.65249 1.7841832,94.190898 1.7841832,93.164706 c 0,-0.399958 0.4966685,-3.946108 1.1037073,-7.880358 C 3.4949308,81.350099 4.222729,75.195587 4.5052218,71.607655 5.07342,64.390969 5.4745652,63.132527 7.539138,62.0899 c 1.03933,-0.52487 3.955354,-0.588525 22.689814,-0.495297 l 21.497216,0.10698 1.132525,1.154909 c 1.393919,1.42147 1.720154,2.743421 2.031882,8.233427 0.270346,4.761268 0.944503,10.305732 2.041683,16.791389 0.911024,5.385262 0.910436,5.404351 -0.208896,6.82005 -2.01943,2.554097 -7.192745,2.498659 -10.440168,-0.111878 -1.010947,-0.812685 -2.688412,-2.996624 -4.410872,-5.742638 -3.840928,-6.123371 -3.635308,-6.021487 -12.15262,-6.021487 -8.517313,0 -8.311691,-0.101879 -12.15262,6.021487 -3.106986,4.953283 -5.064149,6.822954 -7.806288,7.457324 -2.157242,0.499053 -2.978588,0.48001 -4.7839074,-0.110939 z M 45.725817,81.278394 c 1.88216,-2.003043 0.646388,-5.298719 -1.986843,-5.298719 -1.798251,0 -2.992093,1.264524 -2.992093,3.169241 0,2.772488 3.120606,4.107164 4.978936,2.129478 l 0,0 z m -31.372385,-2.04687 c 0.567016,-0.578126 1.030938,-1.370267 1.030938,-1.760314 0,-0.612044 -0.327238,-0.709174 -2.389222,-0.709174 -2.739855,0 -2.972793,0.375436 -1.437616,2.317069 1.163898,1.472056 1.484482,1.489532 2.7959,0.15242 l 0,0 z m 24.80431,-2.958464 c 1.043554,-1.233792 1.259485,-2.092214 0.82923,-3.296555 -0.497447,-1.392424 -1.388013,-2.054696 -2.783203,-2.06974 -1.796182,-0.01937 -2.872702,1.148705 -2.872702,3.117006 0,1.255725 0.204663,1.824614 0.859405,2.388845 1.187557,1.023387 3.03872,0.958268 3.96727,-0.139558 z m 12.590068,0.503925 c 1.119391,-0.637557 1.664531,-2.550742 1.123148,-3.941707 -0.536828,-1.379256 -1.365157,-1.945984 -2.818704,-1.928513 -1.283392,0.01549 -2.179338,0.712259 -2.665516,2.073137 -0.432251,1.209921 0.0175,2.844236 1.001723,3.640018 0.747434,0.604333 2.435489,0.683258 3.359349,0.157065 z M 9.503208,73.24141 c 0,-1.591143 -0.156246,-2.738265 -0.372971,-2.738265 -0.205134,0 -0.99082,0.61611 -1.74597,1.369132 l -1.372999,1.369133 1.372999,1.369132 c 0.75515,0.753023 1.540836,1.369133 1.74597,1.369133 0.216725,0 0.372971,-1.147124 0.372971,-2.738265 z m 9.10282,1.395263 1.373,-1.343 -1.266717,-1.395265 c -1.88584,-2.077216 -2.225223,-1.872386 -2.225223,1.343002 0,1.591141 0.156245,2.738265 0.37297,2.738265 0.205133,0 0.99082,-0.604351 1.74597,-1.343002 z m 27.171286,-3.419356 c 1.86284,-1.862447 0.458899,-5.40834 -2.141346,-5.40834 -2.571575,0 -3.872932,3.333634 -2.089871,5.353522 1.054291,1.194315 3.06542,1.220371 4.231217,0.05481 z M 15.259866,69.110659 c 0.233253,-0.646884 -1.528113,-2.910501 -2.264718,-2.910501 -0.227601,0 -0.879772,0.517585 -1.449268,1.150188 -1.508755,1.675946 -1.084148,2.370438 1.449268,2.370438 1.51323,0 2.101905,-0.158593 2.264718,-0.610125 z"
       id="path3786"
       inkscape:connector-curvature="0" />
  </g>
  <g
     inkscape:label="Gear"
     inkscape:groupmode="layer"
     id="layer1"
     transform="translate(0.781208,-924.05644)"
     style="display:inline">
    <path
       id="path3"
       d="m 82.299644,923.99761 c -0.993355,0.72287 -2.124482,2.48629 -2.56761,4.15434 -1.503869,5.60852 -13.401193,6.41092 -15.9538,1.99072 -0.8521,-1.47708 -2.434902,-2.83649 -3.519644,-3.28889 -2.98189,0.9038 -9.467036,4.63987 -12.087961,6.8085 0.18094,1.53612 0.215564,3.32343 1.096283,4.8467 2.550761,4.4212 -4.353742,14.27061 -9.808846,12.80919 -1.794673,-0.47991 -3.656736,-0.34376 -5.192918,0.28855 -1.265687,2.80276 -3.194451,10.17351 -3.375396,13.15538 0.361889,0.8132 2.515449,2.2504 4.240884,2.712 7.425179,1.9903 7.485417,12.8771 2.106017,15.9826 -1.519564,0.8779 -2.833487,2.098 -3.375399,3.6349 0.903801,2.8915 4.545535,9.2613 6.895043,11.9727 1.53618,0.1807 3.322544,-0.2147 4.846724,-1.0964 4.804257,-2.7761 14.40423,3.7463 12.780347,9.8088 -0.421896,1.5779 -0.183952,3.2482 0.08651,4.8757 3.615194,1.5361 10.174888,3.6967 13.790083,3.6061 1.174293,-1.0847 1.895299,-2.6116 2.307964,-4.1543 1.421706,-5.3065 13.151702,-6.9969 15.924943,-2.1926 0.774564,1.3432 1.850989,2.6237 3.115765,3.3466 3.795207,-1.0847 10.460817,-4.8341 12.722647,-7.1834 0.0885,-1.7163 -0.55276,-3.1355 -1.35594,-4.5295 -2.99759,-5.1874 4.02209,-14.2662 9.78,-12.7226 1.57679,0.4209 3.28469,0.2743 4.73131,-0.086 1.26478,-3.1638 3.36157,-8.8313 3.7216,-13.5304 -1.26476,-1.4458 -2.46005,-2.1209 -4.12548,-2.5676 -5.15322,-1.3811 -6.33328,-13.45622 -2.10603,-15.89613 1.38572,-0.8032 2.46353,-1.94635 3.17346,-3.25998 -1.09952,-4.00936 -4.83588,-9.77833 -6.95275,-12.34756 -1.54724,-0.0723 -3.1469,0.26445 -4.58706,1.09617 -4.61132,2.6644 -14.142517,-4.44751 -12.722644,-9.75102 0.444044,-1.6572 0.217624,-3.67243 -0.144174,-4.8469 -2.620934,-1.3552 -8.834432,-3.18348 -13.443903,-3.63487 z"
       inkscape:connector-curvature="0"
       style="fill:#504949;fill-opacity:1" />
  </g>
  <g
     inkscape:groupmode="layer"
     id="layer3"
     inkscape:label="Letter"
     transform="translate(0.781208,0.30574)">
    <text
       xml:space="preserve"
       style="font-size:78.98882294px;font-style:normal;font-variant:normal;font-weight:normal;font-stretch:normal;line-height:125%;letter-spacing:0px;word-spacing:0px;fill:#00fcff;fill-opacity:1;stroke:#ffffff;stroke-width:1.97472036;stroke-opacity:0.41884813;font-family:Consolas;-inkscape-font-specification:Consolas"
       x="48.86248"
       y="75.131966"
       id="text3771"
       sodipodi:linespacing="125%"
       transform="scale(1.0821022,0.92412716)"><tspan
         sodipodi:role="line"
         id="tspan3773"
         x="48.86248"
         y="75.131966"
         style="font-style:oblique;fill:#00fcff;fill-opacity:1;stroke:#ffffff;stroke-width:1.97472036;stroke-opacity:0.41884813;-inkscape-font-specification:Consolas Oblique">N</tspan></text>
  </g>
</svg>
