<?xml version="1.0" encoding="UTF-8" standalone="no"?>
<svg
   xmlns:dc="http://purl.org/dc/elements/1.1/"
   xmlns:cc="http://creativecommons.org/ns#"
   xmlns:rdf="http://www.w3.org/1999/02/22-rdf-syntax-ns#"
   xmlns:svg="http://www.w3.org/2000/svg"
   xmlns="http://www.w3.org/2000/svg"
   xmlns:sodipodi="http://sodipodi.sourceforge.net/DTD/sodipodi-0.dtd"
   xmlns:inkscape="http://www.inkscape.org/namespaces/inkscape"
   version="1.1"
   id="Settings_1_"
   x="0px"
   y="0px"
   width="100px"
   height="100px"
   viewBox="0 0 100 100"
   enable-background="new 0 0 100 100"
   xml:space="preserve"
   inkscape:version="0.48.5 r10040"
   sodipodi:docname="icon_1241.svg"><metadata
   id="metadata9"><rdf:RDF><cc:Work
       rdf:about=""><dc:format>image/svg+xml</dc:format><dc:type
         rdf:resource="http://purl.org/dc/dcmitype/StillImage" /><dc:title></dc:title></cc:Work></rdf:RDF></metadata><defs
   id="defs7" /><sodipodi:namedview
   pagecolor="#ffffff"
   bordercolor="#666666"
   borderopacity="1"
   objecttolerance="10"
   gridtolerance="10"
   guidetolerance="10"
   inkscape:pageopacity="0"
   inkscape:pageshadow="2"
   inkscape:window-width="1440"
   inkscape:window-height="837"
   id="namedview5"
   showgrid="false"
   inkscape:zoom="2.36"
   inkscape:cx="-20.338983"
   inkscape:cy="50"
   inkscape:window-x="-8"
   inkscape:window-y="-8"
   inkscape:window-maximized="1"
   inkscape:current-layer="Settings_1_" />
<path
   d="M 55.6875 0.03125 C 54.6115 0.81425 53.38625 2.72425 52.90625 4.53125 C 51.27725 10.60625 38.39 11.4755 35.625 6.6875 C 34.702 5.0875 32.9875 3.615 31.8125 3.125 C 28.5825 4.104 21.55775 8.151 18.71875 10.5 C 18.91475 12.164 18.95225 14.1 19.90625 15.75 C 22.66925 20.539 15.19025 31.208 9.28125 29.625 C 7.33725 29.105 5.32025 29.2525 3.65625 29.9375 C 2.28525 32.9735 0.196 40.9575 0 44.1875 C 0.392 45.0685 2.72475 46.625 4.59375 47.125 C 12.63675 49.281 12.702 61.0735 6.875 64.4375 C 5.229 65.3885 3.80575 66.71 3.21875 68.375 C 4.19775 71.507 8.1425 78.40675 10.6875 81.34375 C 12.3515 81.53875 14.2865 81.11125 15.9375 80.15625 C 21.1415 77.14925 31.54025 84.21425 29.78125 90.78125 C 29.32425 92.49025 29.582 94.2995 29.875 96.0625 C 33.791 97.7265 40.8965 100.06675 44.8125 99.96875 C 46.0845 98.79375 46.8655 97.13975 47.3125 95.46875 C 48.8525 89.72075 61.5585 87.88975 64.5625 93.09375 C 65.4015 94.54875 66.5675 95.93575 67.9375 96.71875 C 72.0485 95.54375 79.26875 91.4825 81.71875 88.9375 C 81.81475 87.0785 81.12 85.54125 80.25 84.03125 C 77.003 78.41225 84.60675 68.578 90.84375 70.25 C 92.55175 70.706 94.40175 70.54725 95.96875 70.15625 C 97.33875 66.72925 99.61 60.59 100 55.5 C 98.63 53.934 97.33525 53.20275 95.53125 52.71875 C 89.94925 51.22275 88.671 38.143 93.25 35.5 C 94.751 34.63 95.9185 33.39175 96.6875 31.96875 C 95.4965 27.62575 91.44925 21.37675 89.15625 18.59375 C 87.48025 18.51575 85.7475 18.88025 84.1875 19.78125 C 79.1925 22.66725 68.86825 14.96375 70.40625 9.21875 C 70.88725 7.42375 70.642 5.24075 70.25 3.96875 C 67.411 2.50075 60.6805 0.52025 55.6875 0.03125 z "
   id="path3" />
</svg>