<svg xmlns="http://www.w3.org/2000/svg" xmlns:xlink="http://www.w3.org/1999/xlink" version="1.1" id="Layer_1" x="0px" y="0px" width="100px" height="100px" viewBox="0 0 100 100" enable-background="new 0 0 100 100" xml:space="preserve">
<path fill="#000000" d="M98.266,49.29c-0.146-8.408-5.405-15.551-12.758-18.509l-0.06,0.062c-0.096,0.098-0.221,0.119-0.32,0.124  c7.383,2.842,12.681,9.934,12.825,18.331c0.189,11.046-8.612,20.155-19.66,20.345c-4.84,0.083-9.308-1.56-12.817-4.361l-29.61,0.509  c-3.41,2.922-7.818,4.717-12.658,4.802c-1.325,0.022-2.622-0.087-3.879-0.312C10.103,68.635,3.026,60.653,2.86,50.931  C2.718,42.821,7.432,35.757,14.317,32.5c-0.098,0-0.229-0.016-0.331-0.115l-0.047-0.045C7.083,35.705,2.406,42.812,2.545,50.938  c0.194,11.201,9.463,20.157,20.666,19.964c4.678-0.081,9.209-1.784,12.771-4.803l29.387-0.506c3.667,2.894,8.254,4.442,12.932,4.361  C89.503,69.762,98.459,60.494,98.266,49.29z"/>
<path fill="#000000" d="M33.043,30.516L33.043,30.516L33.043,30.516l34.218-0.588c-0.212-0.004-0.42-0.008-0.616-0.012l-0.302-0.006  l-0.005-0.278l0,0V29.63l-33.343,0.575c0.042,0.167,0.049,0.285,0.048,0.289L33.043,30.516z"/>
<polygon fill="#000000" points="78.944,29.978 78.952,29.979 78.951,29.884 "/>
<path fill="#000000" d="M85.094,30.97L85.094,30.97c-0.028,0-0.072-0.004-0.106-0.006c-0.048-0.002-0.088-0.002-0.145-0.009  c-0.236-0.027-0.566-0.089-0.963-0.166c-0.096-0.019-0.187-0.037-0.291-0.057c-0.114-0.023-0.236-0.046-0.356-0.069  c-0.054-0.011-0.102-0.02-0.155-0.03c8.252,2.228,14.406,9.704,14.563,18.669c0.186,10.856-8.494,19.842-19.351,20.029  c-4.571,0.079-9.053-1.447-12.618-4.295l-0.087-0.068l-29.836,0.512l-0.085,0.073c-3.465,2.967-7.893,4.647-12.463,4.726  C12.342,70.466,3.359,61.783,3.171,50.926c-0.146-8.454,5.089-15.772,12.542-18.687c-0.641,0.15-1.112,0.256-1.369,0.26  c-0.007,0-0.017,0-0.026,0c0,0,0,0-0.001,0c0,0,0.001,0,0.001,0C7.434,35.758,2.718,42.822,2.86,50.931  c0.167,9.724,7.243,17.703,16.468,19.349c1.257,0.225,2.553,0.334,3.878,0.311c4.84-0.084,9.249-1.88,12.659-4.801l29.61-0.509  c3.51,2.802,7.978,4.444,12.817,4.361c11.048-0.189,19.85-9.299,19.66-20.345c-0.146-8.396-5.442-15.488-12.825-18.331  C85.116,30.967,85.104,30.968,85.094,30.97L85.094,30.97z"/>
<path fill="#000000" d="M2.86,50.931C2.718,42.822,7.434,35.758,14.319,32.5c0,0-0.001,0-0.001,0  C7.432,35.757,2.718,42.821,2.86,50.931c0.166,9.723,7.243,17.704,16.468,19.349C10.103,68.634,3.026,60.654,2.86,50.931z"/>
<path fill="#000000" d="M33.042,30.516l0.006,0.28l-0.303,0.017c-0.185,0.011-0.381,0.021-0.581,0.031L75.503,30.1l0.032-0.002  c0.041-0.008,0.084-0.008,0.124-0.014c-1.686-0.032-3.786-0.072-5.731-0.107c-0.94-0.018-1.85-0.034-2.65-0.049L33.042,30.516z"/>
<path fill="#000000" d="M78.255,67.318c9.685-0.168,17.43-8.183,17.262-17.869c-0.167-9.686-8.182-17.431-17.867-17.263  c-9.687,0.166-17.429,8.183-17.266,17.866C60.555,59.739,68.569,67.483,78.255,67.318z M75.105,52.804l9.017-7.333  c0.859-0.701,1.897-1.079,3.002-1.096c1.515-0.026,2.931,0.631,3.886,1.805c1.701,2.096,1.383,5.184-0.711,6.887l-9.02,7.331  c-0.857,0.698-1.896,1.078-2.999,1.098c-1.516,0.025-2.933-0.633-3.886-1.807c-0.827-1.015-1.206-2.289-1.073-3.592  C73.456,54.798,74.088,53.628,75.105,52.804z M66.128,45.581l9.019-7.333c0.858-0.699,1.896-1.078,3.001-1.096  c1.515-0.027,2.931,0.633,3.886,1.806c1.703,2.095,1.385,5.183-0.711,6.886l-9.018,7.333c-0.859,0.697-1.896,1.076-3,1.096  c-1.517,0.026-2.932-0.631-3.885-1.806c-0.826-1.016-1.204-2.289-1.071-3.591C64.479,47.574,65.114,46.405,66.128,45.581z"/>
<path fill="#000000" d="M11.031,50.345c0.11,6.395,5.403,11.509,11.801,11.398c6.395-0.109,11.508-5.403,11.398-11.798  c-0.113-6.395-5.405-11.509-11.8-11.399C16.035,38.654,10.922,43.95,11.031,50.345z M33.917,49.95  c0.1,5.845-4.258,10.727-9.939,11.402c-0.378,0.045-0.763,0.072-1.153,0.078c-6.234,0.108-11.373-4.859-11.48-11.092  c-0.1-5.845,4.257-10.726,9.939-11.401c0.378-0.045,0.763-0.071,1.153-0.078C28.668,38.751,33.81,43.717,33.917,49.95z"/>
<path fill="#000000" d="M11.344,50.338c0.107,6.233,5.246,11.201,11.48,11.092c0.39-0.006,0.774-0.033,1.153-0.078  c5.682-0.676,10.039-5.558,9.939-11.402c-0.108-6.234-5.249-11.198-11.48-11.091c-0.39,0.007-0.774,0.033-1.153,0.078  C15.602,39.613,11.245,44.495,11.344,50.338z M22.441,39.172c6.051-0.105,11.058,4.733,11.162,10.783  c0.104,6.053-4.731,11.058-10.785,11.163c-6.051,0.105-11.057-4.733-11.162-10.784C11.553,44.283,16.39,39.275,22.441,39.172z"/>
<path fill="#000000" d="M33.917,49.95c-0.107-6.233-5.249-11.199-11.48-11.091C28.667,38.752,33.809,43.716,33.917,49.95z"/>
<path fill="#000000" d="M23.977,61.353c5.682-0.676,10.039-5.558,9.939-11.402C34.016,55.795,29.659,60.677,23.977,61.353z"/>
<path fill="#000000" d="M21.283,38.937c-5.682,0.676-10.039,5.557-9.939,11.401C11.245,44.495,15.602,39.613,21.283,38.937z"/>
<polygon fill="#000000" points="19.559,47.068 14.308,47.159 14.419,53.64 19.671,53.548 19.76,58.802 26.242,58.689 26.153,53.438   31.403,53.347 31.292,46.867 26.04,46.956 25.951,41.704 19.469,41.815 "/>
<path fill="#000000" d="M38.573,55.964c0.471,0.548,1.132,0.753,1.477,0.457l5.314-4.55c0.343-0.296,0.244-0.98-0.228-1.529  c-0.469-0.549-1.13-0.754-1.476-0.459l-5.313,4.552C38.003,54.729,38.105,55.414,38.573,55.964z"/>
<path fill="#000000" d="M55.42,50.164c-0.473-0.55-1.133-0.753-1.478-0.457l-5.313,4.548c-0.344,0.298-0.245,0.981,0.227,1.532  c0.469,0.548,1.129,0.752,1.477,0.456l5.312-4.55C55.987,51.396,55.889,50.713,55.42,50.164z"/>
<path fill="#000000" d="M87.165,52.522c1.86-0.033,3.349-1.572,3.316-3.435c-0.035-1.86-1.571-3.348-3.434-3.317  c-1.859,0.033-3.349,1.573-3.316,3.434C83.763,51.066,85.303,52.553,87.165,52.522z"/>
<path fill="#000000" d="M78.129,60.055c1.861-0.031,3.349-1.57,3.317-3.434c-0.033-1.86-1.571-3.348-3.436-3.316  c-1.858,0.032-3.347,1.57-3.313,3.434C74.729,58.6,76.269,60.088,78.129,60.055z"/>
<path fill="#000000" d="M69.516,53.229c2.207-0.039,3.972-1.864,3.932-4.072c-0.037-2.206-1.861-3.968-4.069-3.931  c-2.207,0.038-3.97,1.863-3.931,4.069C65.484,51.503,67.31,53.266,69.516,53.229z M69.382,45.539  c2.039-0.034,3.72,1.589,3.753,3.626c0.037,2.037-1.586,3.716-3.623,3.751c-1.02,0.019-1.949-0.38-2.627-1.035  c-0.68-0.656-1.106-1.571-1.126-2.589C65.725,47.254,67.348,45.575,69.382,45.539z"/>
<path fill="#000000" d="M69.383,45.54c-2.035,0.036-3.658,1.715-3.622,3.753c0.018,1.017,0.445,1.932,1.124,2.588  c0.678,0.655,1.607,1.053,2.626,1.034c2.036-0.035,3.661-1.714,3.624-3.75C73.102,47.129,71.421,45.505,69.383,45.54z   M72.823,49.169c0.03,1.861-1.457,3.401-3.316,3.435c-1.862,0.03-3.402-1.457-3.435-3.32c-0.031-1.861,1.456-3.4,3.317-3.433  C71.251,45.821,72.79,47.308,72.823,49.169z"/>
<path fill="#000000" d="M69.511,52.915c-1.019,0.019-1.948-0.379-2.626-1.034C67.562,52.536,68.492,52.935,69.511,52.915  c2.038-0.034,3.661-1.713,3.624-3.75C73.172,51.201,71.547,52.88,69.511,52.915z"/>
<path fill="#000000" d="M78.112,46.151c2.207-0.038,3.972-1.864,3.934-4.069c-0.04-2.208-1.864-3.97-4.07-3.933  c-2.207,0.038-3.971,1.863-3.932,4.069C74.083,44.424,75.907,46.189,78.112,46.151z M77.98,38.462  c1.529-0.026,2.854,0.88,3.437,2.194c0.194,0.438,0.306,0.921,0.315,1.431c0.033,2.036-1.588,3.715-3.625,3.751  c-2.037,0.034-3.716-1.588-3.751-3.625S75.943,38.497,77.98,38.462z"/>
<path fill="#000000" d="M78.107,45.838c2.037-0.036,3.658-1.715,3.625-3.751c-0.01-0.509-0.121-0.993-0.315-1.431  c-0.583-1.314-1.909-2.22-3.437-2.194c-2.037,0.034-3.659,1.713-3.624,3.75S76.07,45.872,78.107,45.838z M77.987,38.775  c1.858-0.033,3.4,1.456,3.433,3.317c0.032,1.86-1.456,3.401-3.318,3.432c-1.858,0.033-3.399-1.455-3.432-3.316  C74.637,40.346,76.124,38.807,77.987,38.775z"/>
<path fill="#000000" d="M81.417,40.656c0.194,0.438,0.306,0.921,0.315,1.431C81.723,41.578,81.611,41.094,81.417,40.656z"/>
<path fill="#000000" d="M66.339,29.631l0.922-0.016c-0.002,0-0.003,0-0.004,0c-0.378-0.008-0.605-0.012-0.605-0.012l0,0l0,0  c0,0-0.024-1.342,1.765-1.373c0.002,0.146,5.198,0.01,8.771-0.1c0.34-0.01,0.666-0.02,0.97-0.03  c1.372-0.044,2.328-0.078,2.328-0.078s3.596,1.057,4.739,2.601c-0.011,0.013-0.038,0.02-0.065,0.025  c0.115,0.044,0.233,0.083,0.35,0.132l0.125-0.129l-0.159-0.212c-1.193-1.612-4.752-2.673-4.903-2.715l-0.048-0.016l-0.05,0.003  c-0.055,0.001-5.401,0.192-8.934,0.252c-1.771,0.031-2.51,0.018-2.814,0.002l-0.001-0.052l-0.314,0.005  c-2.076,0.036-2.072,1.674-2.072,1.689L66.339,29.631L66.339,29.631L66.339,29.631z"/>
<polygon fill="#000000" points="66.338,29.632 66.338,29.631 66.339,29.631 66.339,29.63 66.338,29.63 66.338,29.632 "/>
<path fill="#000000" d="M78.957,30.152c1.357-0.024,2.885,0.239,4.116,0.479c-1.324-0.356-2.702-0.582-4.12-0.651L78.957,30.152z"/>
<path fill="#000000" d="M78.944,29.979c-0.44-0.02-0.885-0.034-1.332-0.027c-0.644,0.011-1.296,0.058-1.949,0.132  c1.845,0.037,3.188,0.062,3.271,0.066L78.944,29.979L78.944,29.979L78.944,29.979z"/>
<path fill="#000000" d="M75.497,29.786c0.049-0.006,0.1-0.008,0.15-0.012c-2.887-0.057-6.834-0.131-8.356-0.158l-0.015,0  c-0.006,0-0.01,0-0.016,0l0,0c0.006,0,0.01,0,0.014,0l-0.936,0.016l0.004,0.277l0.303,0.006c0.2,0.004,0.413,0.008,0.632,0.012  h-0.017c0.006,0,0.011,0,0.016,0L75.497,29.786z"/>
<path fill="#000000" d="M66.646,29.915l-0.303-0.006l-0.004-0.277h-0.001l0.005,0.278L66.646,29.915  c0.195,0.004,0.403,0.008,0.615,0.012h0.017C67.059,29.923,66.846,29.919,66.646,29.915z"/>
<path fill="#000000" d="M67.274,29.616c-0.004,0-0.008,0-0.014,0l-0.922,0.016v0L67.274,29.616z"/>
<rect x="66.338" y="29.631" fill="#000000" width="0.001" height="0"/>
<path fill="#000000" d="M85.157,30.649c-0.072,0.013-0.2,0.004-0.364-0.018c-0.362-0.048-0.923-0.165-1.6-0.295  c0.327,0.088,0.651,0.185,0.972,0.291c0.002,0,0.005,0.001,0.006,0.001c0.322,0.105,0.642,0.219,0.957,0.339  c0.1-0.005,0.225-0.026,0.32-0.124l0.06-0.062l0,0v0C85.392,30.733,85.272,30.694,85.157,30.649z"/>
<polygon fill="#000000" points="85.155,30.648 85.157,30.649 85.155,30.648 "/>
<path fill="#000000" d="M85.157,30.649c0.115,0.045,0.234,0.084,0.351,0.132v0C85.392,30.732,85.273,30.693,85.157,30.649  C85.157,30.648,85.157,30.648,85.157,30.649z"/>
<path fill="#000000" d="M83.077,30.632c0.053,0.009,0.102,0.02,0.155,0.03c0.12,0.023,0.241,0.046,0.354,0.068  c0.106,0.021,0.196,0.039,0.293,0.058c0.396,0.077,0.727,0.139,0.963,0.166c0.057,0.006,0.097,0.006,0.145,0.009  c0.034,0.002,0.078,0.007,0.106,0.006c0.01-0.001,0.022-0.001,0.033-0.003c-0.315-0.121-0.634-0.233-0.956-0.339  c-0.001,0-0.004-0.001-0.006-0.001c-0.32-0.105-0.645-0.202-0.973-0.291c-1.233-0.241-2.832-0.521-4.242-0.497  c0.075-0.002-1.375-0.03-3.303-0.064c-0.051,0.004-0.102,0.005-0.15,0.012l-8.221,0.142h0.001l0,0  c0.801,0.015,1.71,0.032,2.65,0.049c1.945,0.036,4.045,0.076,5.729,0.106c0.002,0,0.005,0,0.006,0c-0.001,0-0.003,0-0.005,0  c0.655-0.075,1.31-0.122,1.955-0.133c0.446-0.006,0.891,0.008,1.331,0.027l0.007-0.1v0.006l0.001-0.007v0.102c0-0.001,0,0,0.001,0  l0,0C80.371,30.049,81.75,30.274,83.077,30.632z"/>
<rect x="83.074" y="30.631" fill="#000000" width="0.002" height="0.002"/>
<polygon fill="#000000" points="78.951,29.884 78.952,29.979 78.952,29.877 "/>
<path fill="#000000" d="M84.843,30.955c-0.236-0.027-0.567-0.089-0.963-0.166C84.276,30.866,84.606,30.928,84.843,30.955z"/>
<path fill="#000000" d="M83.077,30.632L83.077,30.632c0.054,0.01,0.102,0.02,0.155,0.03C83.179,30.652,83.13,30.641,83.077,30.632z"/>
<path fill="#000000" d="M85.094,30.97L85.094,30.97c-0.028,0-0.072-0.005-0.106-0.007C85.021,30.965,85.065,30.97,85.094,30.97z"/>
<path fill="#000000" d="M67.277,29.928c0.801,0.015,1.71,0.032,2.65,0.049C68.987,29.959,68.078,29.943,67.277,29.928L67.277,29.928  z"/>
<path fill="#000000" d="M78.953,29.979L78.953,29.979c1.418,0.07,2.796,0.295,4.12,0.651c0.002,0.001,0.003,0.001,0.004,0.001  C81.75,30.274,80.371,30.049,78.953,29.979z"/>
<path fill="#000000" d="M78.944,29.979L78.944,29.979c-0.44-0.02-0.885-0.034-1.331-0.028c-0.646,0.011-1.3,0.058-1.955,0.133  c0.002,0,0.004,0,0.005,0c0.653-0.074,1.306-0.121,1.949-0.132C78.06,29.945,78.504,29.958,78.944,29.979z"/>
<path fill="#000000" d="M84.165,30.626c0.002,0,0.005,0.001,0.006,0.001C84.17,30.627,84.167,30.626,84.165,30.626z"/>
<path fill="#000000" d="M67.275,29.615c0.005,0,0.013,0,0.016,0l0.016,0C67.297,29.615,67.284,29.615,67.275,29.615l8.197-0.143  c0.049-0.006,0.098-0.008,0.146-0.013l-8.596-0.163c0.11-0.301,0.426-0.712,1.319-0.75c0.343,0.083,1.176,0.079,3.21,0.044  c3.35-0.057,8.327-0.232,8.89-0.253c0.362,0.112,2.697,0.857,3.985,1.919c-0.214-0.041-0.457-0.087-0.718-0.139  c-0.156-0.031-0.323-0.063-0.496-0.096c0.659,0.177,1.308,0.385,1.941,0.627c0.001,0,0.002,0,0.002,0c0,0,0,0,0.001,0.001  c0.027-0.006,0.055-0.012,0.065-0.025c-1.144-1.544-4.739-2.601-4.739-2.601s-0.956,0.034-2.328,0.078  c-0.304,0.01-0.63,0.02-0.97,0.03c-3.571,0.111-8.769,0.246-8.771,0.101c-1.784,0.031-1.765,1.365-1.765,1.372  c0.003,0,0.228,0.003,0.605,0.012c0.001,0,0.002,0,0.004,0L67.275,29.615z"/>
<path fill="#000000" d="M66.651,29.604c0,0,0.228,0.004,0.605,0.012C66.879,29.607,66.654,29.604,66.651,29.604L66.651,29.604z"/>
<path fill="#000000" d="M67.261,29.616c0.006,0,0.01,0,0.016,0l0.015,0c-0.003,0-0.011,0-0.016,0L67.261,29.616z"/>
<rect x="85.156" y="30.648" fill="#000000" width="0.002" height="0.001"/>
<path fill="#000000" d="M85.155,30.648c-0.634-0.242-1.282-0.45-1.941-0.627c-1.223-0.237-2.847-0.519-4.27-0.497l-0.001,0.008  c-0.12-0.011-0.287-0.014-0.514-0.021l-2.811-0.052c-0.049,0.005-0.098,0.007-0.145,0.014l-8.168,0.142  c1.533,0.028,5.461,0.101,8.341,0.158c0.001,0,0.003,0,0.005,0c-0.002,0-0.003,0-0.005,0c0.006,0,0.014,0,0.02-0.001  c0.631-0.073,1.269-0.121,1.917-0.132c0.007-0.001,0.015-0.002,0.022-0.002c1.449-0.024,2.867,0.11,4.236,0.381  c0.456,0.091,0.906,0.197,1.351,0.317c0.677,0.13,1.236,0.247,1.6,0.295C84.957,30.652,85.083,30.661,85.155,30.648z"/>
<path fill="#000000" d="M84.793,30.631c0.164,0.022,0.292,0.031,0.364,0.018c0,0-0.001,0-0.002-0.001  C85.083,30.661,84.957,30.652,84.793,30.631z"/>
<path fill="#000000" d="M75.619,29.46c-0.049,0.004-0.098,0.007-0.146,0.013l-8.198,0.142c0.01,0,0.022,0,0.032,0l8.168-0.142  C75.521,29.467,75.57,29.465,75.619,29.46z"/>
<path fill="#000000" d="M77.605,29.637c-0.008,0-0.015,0-0.021,0.001c-0.647,0.013-1.286,0.06-1.917,0.132  c-0.005,0.001-0.011,0.001-0.015,0.001c1.926,0.034,3.374,0.064,3.298,0.064c1.41-0.022,3.009,0.258,4.243,0.499  c-0.444-0.121-0.895-0.226-1.351-0.317C80.474,29.747,79.056,29.613,77.605,29.637z"/>
<path fill="#000000" d="M75.647,29.772c0.002,0,0.003,0,0.005,0c0.004,0,0.01,0,0.015-0.001  C75.661,29.772,75.653,29.772,75.647,29.772z"/>
<path fill="#000000" d="M81.843,30.018c-1.369-0.271-2.787-0.405-4.236-0.381c-0.008,0-0.016,0.001-0.022,0.002  c0.007-0.001,0.014-0.001,0.021-0.001C79.056,29.613,80.474,29.747,81.843,30.018z"/>
<path fill="#000000" d="M14.202,32.161c0.136-0.198,0.311-0.39,0.513-0.574c1.31-1.195,3.753-2.06,4.095-2.177  c0.026-0.009,0.04-0.014,0.04-0.014s0.047,0,0.136,0c0.088,0,0.218,0,0.383,0c0,0,0,0,0,0c2.311,0,11.553-0.012,11.549-0.207  c1.25-0.023,1.637,0.626,1.755,1.018l0.319-0.004c-0.119-0.473-0.549-1.354-2.08-1.329L30.6,28.88l0.001,0.053  c-0.306,0.027-1.044,0.064-2.815,0.095c-3.532,0.06-8.882,0.055-8.936,0.054l-0.051,0.001l-0.048,0.015  c-0.151,0.051-3.67,1.232-4.806,2.883l-0.15,0.218l0.145,0.14c0.108-0.054,0.22-0.105,0.331-0.157  C14.241,32.179,14.215,32.171,14.202,32.161z"/>
<path fill="#000000" d="M19.112,31.26c-1.175,0.228-2.311,0.555-3.399,0.979c0.045-0.01,0.082-0.018,0.129-0.03  c1.288-0.3,3.051-0.712,4.607-0.737l-0.004-0.313l0,0l0,0v0C20.012,31.167,19.563,31.206,19.112,31.26z"/>
<path fill="#000000" d="M20.472,31.47c0.199-0.015,7.407-0.401,11.677-0.626l-7.546,0.13c-0.118-0.012-0.237-0.015-0.359-0.022  c0.001,0,0.002,0,0.004,0c0,0-0.001,0-0.001,0c-2.153,0.115-3.852,0.207-3.799,0.207L20.472,31.47z"/>
<path fill="#000000" d="M14.318,32.499c0.417-0.196,0.84-0.383,1.271-0.551c-0.657,0.154-1.135,0.258-1.316,0.234  c0,0-0.002,0.001-0.002,0.001c0,0,0,0,0,0c-0.111,0.052-0.223,0.104-0.331,0.157l0.047,0.045  C14.088,32.483,14.22,32.499,14.318,32.499z"/>
<path fill="#000000" d="M33.042,30.496c0-0.004-0.005-0.122-0.049-0.29h0.002c0-0.001,0-0.001,0-0.001l-0.318,0.004  c0.05,0.169,0.053,0.292,0.053,0.292s-0.23,0.012-0.618,0.033l0.931-0.018V30.496z"/>
<path fill="#000000" d="M33.042,30.496v0.02h0L33.042,30.496c0.002-0.005-0.005-0.123-0.047-0.29h-0.002  C33.038,30.374,33.043,30.492,33.042,30.496z"/>
<path fill="#000000" d="M15.713,32.239c1.088-0.424,2.225-0.752,3.399-0.979c-1.288,0.159-2.583,0.468-3.523,0.688  c-0.431,0.168-0.854,0.355-1.271,0.551c0.009,0.001,0.019,0.001,0.026,0C14.601,32.495,15.073,32.389,15.713,32.239z"/>
<path fill="#000000" d="M15.713,32.239c1.088-0.424,2.224-0.751,3.399-0.979C17.938,31.487,16.801,31.815,15.713,32.239z"/>
<path fill="#000000" d="M32.165,30.843c-0.005,0-0.011,0.001-0.016,0.001L32.165,30.843c0.2-0.01,0.396-0.019,0.58-0.03l0.303-0.017  l-0.006-0.28l-0.931,0.018c-1.421,0.075-5.028,0.266-7.863,0.418c0.119,0.007,0.237,0.011,0.356,0.021L32.165,30.843z"/>
<path fill="#000000" d="M24.603,30.974l7.546-0.13c0.004,0,0.011-0.001,0.016-0.001L24.603,30.974  c-0.118-0.011-0.236-0.015-0.355-0.022c-0.001,0-0.002,0-0.004,0C24.365,30.959,24.484,30.962,24.603,30.974z"/>
<path fill="#000000" d="M19.369,29.397c-0.165,0-0.295,0-0.383,0c-0.088,0-0.136,0-0.136,0s-0.014,0.005-0.04,0.014  c-0.342,0.117-2.785,0.982-4.095,2.177c-0.201,0.184-0.376,0.375-0.512,0.572c0.013,0.013,0.039,0.02,0.069,0.022  c0.41-0.191,0.825-0.374,1.25-0.538c-0.19,0.042-0.375,0.085-0.537,0.121c1.251-1.104,3.56-1.93,3.918-2.054  c0.564,0.002,5.544,0.003,8.894-0.055c2.034-0.035,2.866-0.06,3.205-0.153c0.895,0.007,1.226,0.41,1.345,0.705l-0.241,0.012  l0.568-0.011c-0.119-0.391-0.504-1.041-1.755-1.017C30.92,29.385,21.68,29.396,19.369,29.397  C19.369,29.397,19.369,29.397,19.369,29.397z"/>
<polygon fill="#000000" points="14.271,32.181 14.273,32.182 14.273,32.182 "/>
<path fill="#000000" d="M14.203,32.159c0.136-0.198,0.311-0.389,0.512-0.572c-0.202,0.184-0.377,0.375-0.513,0.574  c0.014,0.011,0.04,0.018,0.068,0.021c0,0,0.001,0,0.001-0.001C14.241,32.179,14.216,32.172,14.203,32.159z"/>
<path fill="#000000" d="M19.369,29.397C19.369,29.397,19.369,29.397,19.369,29.397S19.369,29.397,19.369,29.397z"/>
<rect x="14.271" y="32.181" fill="#000000" width="0.001" height="0.003"/>
<path fill="#000000" d="M20.444,31.157l0.002,0.001l0-0.001l0,0.001l0,0c-0.052-0.001,1.646-0.093,3.799-0.207  c-0.578-0.04-1.155-0.063-1.725-0.053c-0.806,0.014-1.594,0.095-2.374,0.206c-0.346,0.048-0.695,0.09-1.036,0.156  C19.562,31.205,20.012,31.166,20.444,31.157z"/>
<path fill="#000000" d="M24.246,30.952c-2.153,0.114-3.852,0.206-3.799,0.207C20.394,31.158,22.093,31.066,24.246,30.952z"/>
<path fill="#000000" d="M24.264,30.638c0.123,0.01,0.245,0.013,0.366,0.022l7.48-0.127c0.389-0.021,0.618-0.033,0.618-0.033  s-0.002-0.123-0.055-0.292l-0.568,0.011L24.264,30.638z"/>
<path fill="#000000" d="M14.273,32.182c0.181,0.023,0.659-0.08,1.316-0.234c0.001-0.001,0.002-0.001,0.004-0.001  c-0.001,0-0.002,0.001-0.004,0.001c0.548-0.214,1.107-0.402,1.678-0.567c0.004-0.001,0.009-0.003,0.014-0.004  c0.572-0.166,1.154-0.304,1.745-0.417c-1.218,0.153-2.436,0.434-3.327,0.643c-0.061,0.013-0.118,0.026-0.176,0.041  c0,0-0.001,0.001-0.002,0.001c0.001,0,0.001,0,0.002,0C15.099,31.807,14.683,31.989,14.273,32.182z"/>
<path fill="#000000" d="M14.273,32.182c0.41-0.192,0.826-0.375,1.25-0.539c-0.001,0-0.001,0-0.002,0  c-0.425,0.165-0.84,0.347-1.25,0.538C14.272,32.182,14.273,32.182,14.273,32.182z"/>
<path fill="#000000" d="M17.281,31.376c-0.005,0.001-0.009,0.003-0.014,0.004c-0.568,0.164-1.127,0.353-1.674,0.566  c0.94-0.22,2.232-0.527,3.519-0.687c0.341-0.065,0.689-0.107,1.036-0.155c0.78-0.11,1.567-0.192,2.374-0.206  c0.569-0.011,1.147,0.013,1.725,0.053c2.834-0.153,6.444-0.343,7.866-0.418l-7.48,0.127c-0.121-0.01-0.244-0.013-0.367-0.022  l-3.311,0.178c-0.225,0.012-0.391,0.02-0.514,0.037v-0.007c-0.453,0.005-0.927,0.049-1.403,0.109  c-0.003,0.001-0.006,0.001-0.01,0.003c0.004-0.001,0.007-0.001,0.009-0.002C18.441,31.07,17.856,31.21,17.281,31.376z"/>
<path fill="#000000" d="M20.148,31.104c0.78-0.11,1.567-0.192,2.374-0.206C21.715,30.913,20.928,30.994,20.148,31.104z"/>
<path fill="#000000" d="M15.59,31.947c0.001,0,0.003-0.001,0.004-0.001c0.546-0.213,1.105-0.402,1.674-0.566  C16.697,31.545,16.138,31.733,15.59,31.947z"/>
<path fill="#000000" d="M19.036,30.957c-0.002,0-0.005,0-0.009,0.002c-0.591,0.113-1.173,0.252-1.745,0.417  C17.856,31.21,18.441,31.07,19.036,30.957z"/>
</svg>