<svg xmlns="http://www.w3.org/2000/svg" xmlns:xlink="http://www.w3.org/1999/xlink" version="1.1" id="Layer_1" x="0px" y="0px" width="100px" height="100px" viewBox="0 0 100 100" enable-background="new 0 0 100 100" xml:space="preserve">
<g>
	<path d="M84.712,66.527c-0.827,0-1.5,0.615-1.5,1.371s0.673,1.371,1.5,1.371c0.825,0,1.498-0.615,1.498-1.371   S85.537,66.527,84.712,66.527z"/>
	<path d="M92.149,18.493H7.852c-0.77,0-1.394,0.574-1.394,1.282v51.5c0,0.707,0.624,1.282,1.394,1.282h84.298   c0.769,0,1.393-0.575,1.393-1.282v-51.5C93.542,19.067,92.918,18.493,92.149,18.493z M13.443,69.492   c-0.95,0-1.723-0.715-1.723-1.594s0.772-1.594,1.723-1.594c0.949,0,1.721,0.715,1.721,1.594S14.393,69.492,13.443,69.492z    M84.712,69.492c-0.95,0-1.722-0.715-1.722-1.594s0.771-1.594,1.722-1.594c0.948,0,1.721,0.715,1.721,1.594   S85.66,69.492,84.712,69.492z M89.487,62.727H10.191V20.951h79.296V62.727z"/>
	<path d="M13.443,66.527c-0.827,0-1.501,0.615-1.501,1.371s0.674,1.371,1.501,1.371c0.826,0,1.499-0.615,1.499-1.371   S14.27,66.527,13.443,66.527z"/>
</g>
<path d="M73.373,73.414c0,4.47-10.253,8.093-22.901,8.093c-12.647,0-22.899-3.623-22.899-8.093"/>
</svg>