<svg xmlns:dc="http://purl.org/dc/elements/1.1/" xmlns:cc="http://creativecommons.org/ns#" xmlns:rdf="http://www.w3.org/1999/02/22-rdf-syntax-ns#" xmlns:svg="http://www.w3.org/2000/svg" xmlns="http://www.w3.org/2000/svg" xmlns:sodipodi="http://sodipodi.sourceforge.net/DTD/sodipodi-0.dtd" xmlns:inkscape="http://www.inkscape.org/namespaces/inkscape" version="1.1" id="svg4199" sodipodi:docname="jigsaw.svg" inkscape:version="0.48.2 r9819" x="0px" y="0px" width="100.0px" height="100px" viewBox="0 0 354.3307 354.33069" enable-background="new 0 0 3628.347 2721.26" xml:space="preserve"><metadata id="metadata18"><rdf:RDF><cc:Work rdf:about=""><dc:format>image/svg+xml</dc:format><dc:type rdf:resource="http://purl.org/dc/dcmitype/StillImage"/><dc:title/></cc:Work></rdf:RDF></metadata><defs id="defs16"/>
<sodipodi:namedview units="mm" inkscape:zoom="1.9263704" inkscape:document-units="mm" pagecolor="#ffffff" id="base" bordercolor="#666666" borderopacity="1.0" inkscape:pageopacity="0.0" inkscape:pageshadow="2" inkscape:cx="177.16535" inkscape:cy="177.16534" inkscape:current-layer="layer1" showgrid="false" inkscape:showpageshadow="false" inkscape:window-width="2560" inkscape:window-height="1320" inkscape:window-x="0" inkscape:window-y="0" inkscape:window-maximized="1" fit-margin-top="0" fit-margin-left="0" fit-margin-right="0" fit-margin-bottom="0">
	<inkscape:grid type="xygrid" id="grid4354" empspacing="5" visible="true" enabled="true" snapvisiblegridlinesonly="true">
		</inkscape:grid>
</sodipodi:namedview>
<g id="layer1" transform="translate(-978.35193,379.27826)" inkscape:groupmode="layer" inkscape:label="Layer 1">
	
	
		<path id="path4293" inkscape:connector-curvature="0" stroke-miterlimit="30.3" d="m 1079.793,-227.28275 c -7.3649,0 -15.5023,1.58707 -16.702,8.51703 -0.578,3.33885 1.7314,6.30302 4.0994,8.82158 2.3652,2.51557 2.6649,6.00428 1.4127,9.74926 h -45.6743 v 0.0969 h -0.069 v 45.93606 c -3.6083,1.11602 -6.9546,0.76599 -9.3897,-1.52336 -2.5185,-2.36769 -5.4827,-4.69111 -8.8218,-4.11306 -6.92992,1.19978 -8.51702,9.33693 -8.51702,16.70148 -4e-4,7.36473 1.5871,15.50169 8.51702,16.70126 3.3391,0.57805 6.3033,-1.73134 8.8218,-4.09903 2.4348,-2.28935 5.7814,-2.63838 9.3897,-1.52356 v 45.36822 h 0.069 v 0.30476 h 0.027 0.36 v 0.17991 h 45.4115 c 1.2202,3.71354 0.9074,7.1694 -1.4403,9.66633 -2.368,2.51836 -4.6774,5.48274 -4.0993,8.82159 1.1995,6.92976 9.3372,8.51704 16.702,8.51704 7.3647,0 15.502,-1.58728 16.7018,-8.51704 0.5781,-3.33905 -1.7452,-6.30303 -4.1131,-8.82159 -2.3479,-2.49712 -2.6475,-5.95258 -1.4265,-9.66633 h 45.7158 v -0.17991 h 0.042 v -45.8527 c 3.6182,-1.12424 6.9769,-0.7712 9.4174,1.52356 2.5187,2.36769 5.4827,4.67728 8.822,4.09903 6.93,-1.19958 8.5174,-9.33693 8.5169,-16.70127 0,-7.36476 -1.5869,-15.5017 -8.5169,-16.70148 -3.3393,-0.57805 -6.3033,1.74516 -8.822,4.11306 -2.4409,2.29476 -5.7989,2.63538 -9.4174,1.50934 v -45.43715 h -0.042 v -0.2216 h -0.055 v -0.083 h -0.3322 v -0.0969 h -45.3977 c -1.2531,-3.74539 -0.9665,-7.23352 1.3989,-9.74928 2.3679,-2.51856 4.6912,-5.48272 4.1132,-8.82158 -1.2002,-6.93055 -9.3377,-8.51763 -16.7022,-8.51763 l 0,0 z" style="fill:#000000;fill-opacity:1;stroke:#666666;stroke-width:0.09999999;stroke-linecap:square;stroke-miterlimit:30.29999924"/>
	
		
	
		
	<path id="path4344" inkscape:connector-curvature="0" d="m 1286.5333,-202.68581 h -45.2308 c -1.2905,3.78225 -1.0146,7.30905 1.3709,9.84645 2.368,2.51856 4.6915,5.48274 4.113,8.82158 -1.1994,6.92996 -9.3371,8.51704 -16.7017,8.51704 -7.3646,0 -15.5024,-1.58708 -16.7023,-8.51704 -0.5779,-3.33884 1.7318,-6.30302 4.0994,-8.82158 2.3856,-2.53699 2.6754,-6.0648 1.385,-9.84645 h -45.7158 v -0.0415 h -0.069 v 45.70043 c 3.7824,1.29054 7.3093,1.01464 9.8468,-1.37109 2.5186,-2.36769 5.4831,-4.6909 8.8219,-4.11285 6.9301,1.19957 8.5174,9.33672 8.5174,16.70126 0,7.36455 -1.5873,15.5017 -8.5174,16.70147 -3.3388,0.57805 -6.3033,-1.73133 -8.8219,-4.09923 -2.5371,-2.38532 -6.0652,-2.67485 -9.8468,-1.38491 v 45.714254 l 45.4114,-0.0136 c 1.3287,-3.85718 1.0562,-7.44729 -1.3294,-9.98488 -2.3679,-2.518374 -4.6914,-5.482554 -4.1134,-8.821404 1.1998,-6.92996 9.3373,-8.51703 16.7022,-8.51703 7.3647,0 15.5019,1.58707 16.7017,8.51703 0.5781,3.33885 -1.7314,6.30303 -4.0994,8.821404 -2.3855,2.53719 -2.6749,6.06518 -1.3849,9.84664 l 45.3836,0.15227 v -0.0136 h -0.069 v -45.617684 c -3.7553,-1.26288 -7.2559,-0.97216 -9.7774,1.39854 -2.5186,2.36789 -5.4827,4.69111 -8.8221,4.11306 -6.9299,-1.19957 -8.5172,-9.33693 -8.5168,-16.70127 0,-7.36476 1.5869,-15.50169 8.5168,-16.70148 3.339,-0.57805 6.3035,1.73134 8.8221,4.09924 2.5215,2.3705 6.0229,2.67484 9.7774,1.41256 v -45.45118 h 0.069 v -0.29092 h 0.1798 v -0.0555 l 0,0 z" style="fill:#000000;fill-opacity:1"/>
	
		
	
		<path id="path4378" inkscape:connector-curvature="0" stroke-miterlimit="30.3" d="m 1024.349,-231.35382 45.0093,0 c 1.2901,-3.78165 1.0008,-7.30924 -1.3849,-9.84664 -2.368,-2.51837 -4.6773,-5.48254 -4.0993,-8.82159 1.1998,-6.92976 9.3372,-8.51684 16.702,-8.51684 7.3648,0 15.5021,1.58708 16.7017,8.51684 0.5781,3.33905 -1.7452,6.30321 -4.113,8.82159 -2.3857,2.53759 -2.6617,6.06439 -1.3711,9.84664 l 45.7017,0 0,0.13825 0.3048,0 0,-45.71442 c 3.7817,-1.28994 7.3094,-1.00062 9.8468,1.3849 2.5185,2.36789 5.4828,4.67728 8.8218,4.09924 6.9301,-1.19978 8.5173,-9.33693 8.5173,-16.70148 0,-7.36455 -1.5874,-15.50189 -8.5173,-16.70146 -3.339,-0.57805 -6.3033,1.74516 -8.8218,4.11285 -2.5376,2.38592 -6.0647,2.66162 -9.8468,1.37108 l 0,-45.70062 -45.5633,0 c -1.2631,3.755 -0.9724,7.25555 1.3986,9.77711 2.3677,2.51855 4.6912,5.48253 4.113,8.82158 -1.1996,6.92978 -9.337,8.51705 -16.7018,8.51705 -7.3647,0 -15.5022,-1.58709 -16.702,-8.51705 -0.578,-3.33905 1.7317,-6.30303 4.0994,-8.82158 2.3706,-2.52116 2.6749,-6.02273 1.4128,-9.77711 l -45.5079,0 0,45.70042 c 3.782,1.29054 7.3092,1.01484 9.8466,-1.37108 2.5184,-2.3677 5.4828,-4.69091 8.8217,-4.11286 6.9302,1.19959 8.5173,9.33693 8.5173,16.70148 0,7.36455 -1.5871,15.50169 -8.5173,16.70146 -3.3389,0.57805 -6.303,-1.73154 -8.8217,-4.09922 -2.5372,-2.38553 -6.0654,-2.67505 -9.8466,-1.38492 l 0,45.57637 0,0 z" style="fill:#000000;fill-opacity:1;stroke:#666666;stroke-width:0.09999999;stroke-linecap:square;stroke-miterlimit:30.29999924"/>
	
		
	
		<path id="path4386" inkscape:connector-curvature="0" stroke-miterlimit="30.3" d="m 1173.9055,-231.28527 h 0.3601 v 0.0693 h 45.1341 c 1.2622,3.75462 0.9579,7.25596 -1.4126,9.77713 -2.3679,2.51837 -4.6776,5.48273 -4.0994,8.82159 1.1998,6.92976 9.3374,8.51684 16.7019,8.51684 7.365,0 15.5024,-1.58708 16.702,-8.51684 0.5783,-3.33906 -1.7453,-6.30302 -4.113,-8.82159 -2.371,-2.52157 -2.6616,-6.02191 -1.3988,-9.77713 h 45.9376 v -45.71424 c 3.7816,-1.28994 7.3095,-1.00061 9.8468,1.38471 2.5186,2.36789 5.4828,4.67728 8.8218,4.09923 6.9301,-1.19957 8.5173,-9.33693 8.5173,-16.70127 0,-7.36475 -1.5874,-15.50169 -8.5173,-16.70147 -3.3391,-0.57805 -6.3032,1.74537 -8.8218,4.11306 -2.5376,2.38592 -6.0646,2.66162 -9.8468,1.37108 v -45.70062 h -46.0206 c -1.156,3.64921 -0.8302,7.04136 1.482,9.50021 2.3679,2.51837 4.6913,5.48253 4.1131,8.8216 -1.1998,6.92975 -9.3371,8.51683 -16.702,8.51683 -7.3648,0 -15.5022,-1.58708 -16.7019,-8.51683 -0.5782,-3.33907 1.7314,-6.30323 4.0993,-8.8216 2.3114,-2.45826 2.6498,-5.85221 1.4957,-9.50021 h -45.2173 v 0.33239 h -0.36 v 45.31273 c 3.7823,1.29055 7.3092,1.01464 9.8468,-1.37108 2.5186,-2.3679 5.4827,-4.6911 8.8219,-4.11306 6.93,1.19978 8.5173,9.33692 8.5173,16.70147 0,7.36454 -1.5871,15.5017 -8.5173,16.70126 -3.3392,0.57805 -6.3033,-1.73134 -8.8219,-4.09922 -2.5372,-2.38532 -6.0652,-2.67485 -9.8468,-1.38471 v 45.70042 z" style="fill:#000000;fill-opacity:1;stroke:#666666;stroke-width:0.09999999;stroke-linecap:square;stroke-miterlimit:30.29999924"/>
	
		
</g>
</svg>