<svg xmlns="http://www.w3.org/2000/svg" xmlns:xlink="http://www.w3.org/1999/xlink" version="1.1" id="Layer_1" x="0px" y="0px" width="100.0px" height="100px" viewBox="0 0 566.93 566.93" enable-background="new 0 0 566.93 566.93" xml:space="preserve">
<g>
	<path d="M485.138,412.927c-1.295-6.684-18.658-97.017-18.658-142.563c0-41.214-24.787-55.109-37.898-56.697l-148.041-0.03   c7.906-18.796,31.48-62.38,77.23-52.85c64.209,13.403,71.607,3.421,92.598-41.038l3.678-7.766c1.828-3.823,0.211-8.4-3.613-10.228   c-3.822-1.833-8.4-0.209-10.227,3.613l-3.709,7.831c-18.826,39.857-20.816,44.01-75.586,32.571   c-54.16-11.324-86.216,37.518-96.884,67.863l-124.751-0.024l-0.922,0.057c-13.107,1.588-37.898,15.483-37.898,56.697   c0,45.532-17.37,135.879-18.667,142.563c-0.947,3.209-4.572,17.998,4.29,31.549c8.059,12.316,23.518,19.51,46.332,21.402   c31.633,1.035,57.377-13.832,76.583-44.15c3.392-5.355,6.351-10.344,9.063-14.916c12.241-20.639,17.118-27.773,29.767-27.773   c3.787,0,6.999-0.115,9.317-0.283l52.134-0.014c2.822,0.182,6.046,0.297,9.832,0.297c12.654,0,17.532,7.141,29.78,27.791   c2.707,4.566,5.664,9.549,9.053,14.898c18.584,29.33,43.314,44.201,73.514,44.201c1.018,0,2.043-0.018,3.451-0.074   c22.434-1.869,37.891-9.063,45.945-21.379C489.716,430.925,486.091,416.138,485.138,412.927z M467.923,436.21   c-5.297,7.967-17.154,12.932-33.912,14.336c-0.857,0.029-1.709,0.045-2.559,0.045c-24.943,0-44.754-12.127-60.557-37.07   c-3.301-5.211-6.178-10.066-8.816-14.516c-12.158-20.498-20.938-35.308-42.974-35.308c-3.403,0-6.303-0.102-9.335-0.281   l-53.128,0.014c-2.528,0.166-5.416,0.268-8.82,0.268c-22.028,0-30.807,14.804-42.958,35.29c-2.642,4.455-5.524,9.316-8.832,14.533   c-15.8,24.943-35.606,37.07-60.546,37.07c-0.848,0-1.705-0.016-2.181-0.021c-17.139-1.428-29.003-6.393-34.303-14.359   c-5.746-8.633-2.52-18.895-2.504-18.943l0.267-0.996c0.776-3.951,19.03-97.353,19.03-145.907c0-35.534,21.097-40.843,24.081-41.415   h287.191c2.93,0.551,24.074,5.797,24.074,41.415c0,48.554,18.246,141.956,19.025,145.907l0.252,0.943   C470.446,417.315,473.669,427.577,467.923,436.21z"/>
	<path d="M395.669,275.564c0,10.534-8.539,19.072-19.072,19.072c-10.539,0-19.072-8.538-19.072-19.072   c0-10.527,8.533-19.072,19.072-19.072C387.13,256.493,395.669,265.037,395.669,275.564z"/>
	<path d="M395.669,339.131c0,10.539-8.539,19.072-19.072,19.072c-10.539,0-19.072-8.533-19.072-19.072   c0-10.532,8.533-19.065,19.072-19.065C387.13,320.065,395.669,328.599,395.669,339.131z"/>
	<path d="M419.833,326.417c-10.533,0-19.07-8.532-19.07-19.072c0-10.527,8.537-19.065,19.07-19.065s19.072,8.538,19.072,19.065   C438.905,317.885,430.366,326.417,419.833,326.417z"/>
	<path d="M333.354,326.417c-10.528,0-19.072-8.532-19.072-19.072c0-10.527,8.544-19.065,19.072-19.065   c10.539,0,19.072,8.538,19.072,19.065C352.427,317.885,343.894,326.417,333.354,326.417z"/>
	<path d="M157.317,273.258c-1.917,3.116-0.503,5.662,3.164,5.662h23.188c3.667,0,4.919-2.438,2.786-5.422l-10.821-12.96   c-2.127-2.972-5.446-2.864-7.364,0.251L157.317,273.258z"/>
	<path d="M186.628,331.384c1.929-3.109,0.497-5.65-3.158-5.65h-23.188c-3.667,0-4.913,2.439-2.798,5.411l10.833,12.959   c2.115,2.979,5.435,2.865,7.364-0.238L186.628,331.384z"/>
	<path d="M201.039,287.668c-3.116-1.929-5.65-0.509-5.65,3.151v23.2c0,3.661,2.433,4.907,5.411,2.786l12.96-10.833   c2.972-2.121,2.863-5.44-0.24-7.363L201.039,287.668z"/>
	<path d="M142.913,316.979c3.116,1.93,5.656,0.51,5.656-3.151v-23.194c0-3.661-2.439-4.913-5.417-2.792l-12.96,10.833   c-2.972,2.121-2.864,5.44,0.24,7.364L142.913,316.979z"/>
</g>
</svg>